<svg xmlns="http://www.w3.org/2000/svg" width="1024" height="223" viewBox="0 0 1024 223">
  <defs>
    <style>
      .cls-1 {
        fill: #fff;
        fill-rule: evenodd;
      }
    </style>
  </defs>
  <path id="Oregoom" class="cls-1" d="M174.226,64.858A88.779,88.779,0,0,0,112.16,2.792a89.188,89.188,0,0,0-47.194,0,90.764,90.764,0,0,0-21.228,8.935A88.06,88.06,0,0,0,25.687,25.64,90.54,90.54,0,0,0,11.715,43.63,88.055,88.055,0,0,0-.458,88.485,86.843,86.843,0,0,0,2.72,112.052,89.576,89.576,0,0,0,64.966,174.3a88.441,88.441,0,0,0,68.422-9,90.532,90.532,0,0,0,17.99-13.972,88.072,88.072,0,0,0,13.913-18.05,90.792,90.792,0,0,0,8.935-21.229A89.193,89.193,0,0,0,174.226,64.858Zm-35.321,44.8a56.369,56.369,0,0,1-11.693,17.33,54.753,54.753,0,0,1-17.391,11.754,54.8,54.8,0,0,1-42.636,0,55.436,55.436,0,0,1-29.144-29.084,52.348,52.348,0,0,1-4.318-21.169A53.2,53.2,0,0,1,38.041,67.2,54.738,54.738,0,0,1,49.794,49.807a56.152,56.152,0,0,1,17.39-11.694,54.788,54.788,0,0,1,42.636,0A54.505,54.505,0,0,1,138.905,67.2a53.192,53.192,0,0,1,4.318,21.288A52.338,52.338,0,0,1,138.905,109.654ZM229.216,103a24.79,24.79,0,0,1,1.918-9.714A24.262,24.262,0,0,1,244.327,80.09a24.8,24.8,0,0,1,9.715-1.919h28.9V45.549h-28.9a57.9,57.9,0,0,0-38.859,14.992L204.389,45.309h-7.915V173.758h32.742V103Zm181.46-34.661a65.211,65.211,0,0,0-10.554-11.693,65.759,65.759,0,0,0-27.465-14.332,64.613,64.613,0,0,0-15.712-1.919,66.237,66.237,0,0,0-25.486,4.917A62.877,62.877,0,0,0,296.5,80.57a72.744,72.744,0,0,0-5.158,27.824,70.416,70.416,0,0,0,5.158,27.285,65.794,65.794,0,0,0,14.092,21.409,64.84,64.84,0,0,0,46.354,19.069A65.8,65.8,0,0,0,372.6,174.3a64.148,64.148,0,0,0,14.512-5.457,66.208,66.208,0,0,0,12.833-8.755,64.579,64.579,0,0,0,10.494-11.634l-23.987-24.106a31.5,31.5,0,0,1-4.977,7.855,31.027,31.027,0,0,1-6.956,6,33.377,33.377,0,0,1-8.336,3.778,32.192,32.192,0,0,1-9.235,1.319q-1.92,0-3.838-.18a18.592,18.592,0,0,1-3.837-.779Zm-82.755,57.089a16.64,16.64,0,0,1-1.559-3.838q-0.6-2.159-1.019-4.5t-0.6-4.618q-0.18-2.277-.18-4.078a39.292,39.292,0,0,1,2.519-14.452,33.072,33.072,0,0,1,6.9-10.974,30.122,30.122,0,0,1,10.314-7.016,32.761,32.761,0,0,1,12.653-2.459,43.162,43.162,0,0,1,4.618.24,18.98,18.98,0,0,1,4.5,1.079Zm188-4.018a37.433,37.433,0,0,1-7.016,11.154,34.91,34.91,0,0,1-10.374,7.8,28.136,28.136,0,0,1-12.654,2.938,32.721,32.721,0,0,1-12.653-2.459,30.06,30.06,0,0,1-10.314-7.016,33.02,33.02,0,0,1-6.9-10.974,39.274,39.274,0,0,1-2.519-14.452,41.327,41.327,0,0,1,2.519-14.931,31.51,31.51,0,0,1,6.9-10.974,28.836,28.836,0,0,1,10.314-6.716,35.029,35.029,0,0,1,12.653-2.279,28.159,28.159,0,0,1,12.654,2.938,34.926,34.926,0,0,1,10.374,7.8,37.439,37.439,0,0,1,7.016,11.154A34.118,34.118,0,0,1,515.918,121.407Zm35.56-75.858h-7.915L530.85,60.781a91.121,91.121,0,0,0-9.775-8.036A74.1,74.1,0,0,0,510.1,46.269a64.109,64.109,0,0,0-11.873-4.318,49.9,49.9,0,0,0-12.354-1.559,63.566,63.566,0,0,0-25.486,5.157A65.064,65.064,0,0,0,439.52,59.821a67.076,67.076,0,0,0-14.092,21.588,69.919,69.919,0,0,0-5.157,26.985,74.4,74.4,0,0,0,5.157,28.425,60.892,60.892,0,0,0,34.96,34.661,69.209,69.209,0,0,0,25.486,4.677,88.153,88.153,0,0,0,8.816-.48,51.8,51.8,0,0,0,9.115-1.739,38.681,38.681,0,0,0,7.975-3.238,14.5,14.5,0,0,0,5.517-5.1,49.652,49.652,0,0,1-3.538,9.355,26.439,26.439,0,0,1-15.052,13.252,38.106,38.106,0,0,1-13.072,1.979l-16.191-.24v32.742l16.43,0.24a63.571,63.571,0,0,0,25.486-5.157,67.081,67.081,0,0,0,20.869-14.032,66.033,66.033,0,0,0,14.092-20.749,63.135,63.135,0,0,0,5.157-25.426V45.549ZM695.4,80.51a65.376,65.376,0,0,0-14.032-21.468,61.912,61.912,0,0,0-20.809-13.792,67.26,67.26,0,0,0-25.605-4.857,63.563,63.563,0,0,0-25.486,5.157A65.535,65.535,0,0,0,588.6,59.761a66.383,66.383,0,0,0-14.092,21.528,70.233,70.233,0,0,0-5.157,27.1,69.155,69.155,0,0,0,5.157,26.806,65.737,65.737,0,0,0,34.961,35.74,65.151,65.151,0,0,0,51.091,0,65.646,65.646,0,0,0,20.809-14.272A67.061,67.061,0,0,0,695.4,135.2a69.192,69.192,0,0,0,5.157-26.806A72.658,72.658,0,0,0,695.4,80.51ZM665,122.666A33.226,33.226,0,0,1,657.98,133.7a31.5,31.5,0,0,1-10.374,7.077,32.067,32.067,0,0,1-12.653,2.518,30.211,30.211,0,0,1-12.653-2.7,32.261,32.261,0,0,1-10.315-7.376,34.6,34.6,0,0,1-6.9-11.034,37.1,37.1,0,0,1-2.519-13.793,38.937,38.937,0,0,1,2.519-14.332,33.771,33.771,0,0,1,6.9-11.034A29.741,29.741,0,0,1,622.3,75.952a33.788,33.788,0,0,1,25.306,0,30.369,30.369,0,0,1,10.374,7.076A34.1,34.1,0,0,1,665,94.062,40.945,40.945,0,0,1,665,122.666ZM837.641,80.51a65.392,65.392,0,0,0-14.032-21.468A61.912,61.912,0,0,0,802.8,45.249a67.269,67.269,0,0,0-25.606-4.857,63.566,63.566,0,0,0-25.486,5.157A65.531,65.531,0,0,0,730.84,59.761a66.351,66.351,0,0,0-14.092,21.528,70.234,70.234,0,0,0-5.158,27.1,69.156,69.156,0,0,0,5.158,26.806,65.74,65.74,0,0,0,34.96,35.74,65.154,65.154,0,0,0,51.092,0,65.646,65.646,0,0,0,20.809-14.272A67.078,67.078,0,0,0,837.641,135.2a69.192,69.192,0,0,0,5.157-26.806A72.658,72.658,0,0,0,837.641,80.51Zm-30.4,42.156a33.226,33.226,0,0,1-7.016,11.034,31.491,31.491,0,0,1-10.375,7.077,32.06,32.06,0,0,1-12.653,2.518,30.218,30.218,0,0,1-12.653-2.7,32.267,32.267,0,0,1-10.314-7.376,34.586,34.586,0,0,1-6.9-11.034,37.1,37.1,0,0,1-2.519-13.793,38.937,38.937,0,0,1,2.519-14.332,33.754,33.754,0,0,1,6.9-11.034,29.746,29.746,0,0,1,10.314-7.076,33.788,33.788,0,0,1,25.306,0,30.363,30.363,0,0,1,10.375,7.076,34.1,34.1,0,0,1,7.016,11.034A40.96,40.96,0,0,1,807.238,122.666ZM1024.26,92.2a48.363,48.363,0,0,0-3.84-19.189,48.808,48.808,0,0,0-26.085-26.146,47.967,47.967,0,0,0-19.129-3.838,53.346,53.346,0,0,0-9,.78,39.878,39.878,0,0,0-8.815,2.579,38.293,38.293,0,0,0-8.1,4.677,33.164,33.164,0,0,0-6.836,6.956,35.6,35.6,0,0,0-15.052-11.634,47.828,47.828,0,0,0-17.571-3.358,46.978,46.978,0,0,0-17.09,3.178A52.813,52.813,0,0,0,877.7,55.144l-8.875-9.835h-7.916V173.758H893.65V92.2a16.247,16.247,0,0,1,1.26-6.356,16.814,16.814,0,0,1,3.478-5.277,15.8,15.8,0,0,1,11.453-4.8A16.371,16.371,0,0,1,926.272,92.2v81.555h32.742V92.2a16.247,16.247,0,0,1,1.26-6.356,16.814,16.814,0,0,1,3.478-5.277,15.8,15.8,0,0,1,11.454-4.8A16.374,16.374,0,0,1,991.637,92.2v81.555h32.623V92.2Z"/>
</svg>
