<svg xmlns="http://www.w3.org/2000/svg" width="1024" height="223" viewBox="0 0 1024 223">
  <defs>
    <style>
      .cls-1 {
        fill: #8b3d88;
        fill-rule: evenodd;
      }
    </style>
  </defs>
  <path id="Oregoom" class="cls-1" d="M174.467,65.468A88.7,88.7,0,0,0,112.434,3.519a89.255,89.255,0,0,0-47.169,0,90.779,90.779,0,0,0-21.217,8.918,88,88,0,0,0-18.04,13.886A90.377,90.377,0,0,0,12.043,44.28,87.8,87.8,0,0,0-.124,89.051a86.577,86.577,0,0,0,3.177,23.523A89.494,89.494,0,0,0,65.265,174.7a88.495,88.495,0,0,0,68.386-8.978,90.452,90.452,0,0,0,17.98-13.946,87.891,87.891,0,0,0,13.905-18.016,90.557,90.557,0,0,0,8.931-21.188A88.92,88.92,0,0,0,174.467,65.468Zm-35.3,44.711a56.265,56.265,0,0,1-11.687,17.3A54.711,54.711,0,0,1,110.1,139.209a54.834,54.834,0,0,1-42.614,0,55.367,55.367,0,0,1-29.128-29.03,52.179,52.179,0,0,1-4.315-21.128A53.04,53.04,0,0,1,38.355,67.8,54.635,54.635,0,0,1,50.1,50.445,56.127,56.127,0,0,1,67.483,38.773a54.828,54.828,0,0,1,42.614,0A54.443,54.443,0,0,1,139.165,67.8a53.038,53.038,0,0,1,4.315,21.248A52.177,52.177,0,0,1,139.165,110.179Zm90.262-6.643a24.627,24.627,0,0,1,24.813-24.78h28.888V46.2H254.24A57.909,57.909,0,0,0,215.4,61.159l-10.788-15.2H196.7V174.164h32.725V103.536Zm181.362-34.6a65.1,65.1,0,0,0-10.548-11.671,65.753,65.753,0,0,0-27.45-14.305,64.655,64.655,0,0,0-15.7-1.915,66.273,66.273,0,0,0-25.472,4.908A62.8,62.8,0,0,0,296.674,81.15a72.526,72.526,0,0,0-5.155,27.773,70.2,70.2,0,0,0,5.155,27.233,65.682,65.682,0,0,0,14.084,21.368,64.856,64.856,0,0,0,46.33,19.034,65.829,65.829,0,0,0,15.643-1.856,64.133,64.133,0,0,0,14.5-5.446,66.245,66.245,0,0,0,12.826-8.739,64.483,64.483,0,0,0,10.489-11.612l-23.974-24.061a31.434,31.434,0,0,1-4.975,7.841,31,31,0,0,1-6.952,5.985,33.359,33.359,0,0,1-8.331,3.771,32.232,32.232,0,0,1-9.23,1.317q-1.918,0-3.836-.18a18.646,18.646,0,0,1-3.836-.778Zm-82.71,56.981a16.625,16.625,0,0,1-1.558-3.831q-0.6-2.154-1.019-4.489t-0.6-4.608q-0.18-2.273-.18-4.07A39.173,39.173,0,0,1,327.24,94.5a33.009,33.009,0,0,1,6.893-10.953,30.1,30.1,0,0,1,10.309-7,32.773,32.773,0,0,1,12.646-2.454,43.2,43.2,0,0,1,4.615.239,19,19,0,0,1,4.5,1.077Zm187.9-4.01a37.364,37.364,0,0,1-7.012,11.133,34.875,34.875,0,0,1-10.369,7.781,28.154,28.154,0,0,1-12.646,2.933A32.757,32.757,0,0,1,473.3,141.3a30.058,30.058,0,0,1-10.308-7,32.968,32.968,0,0,1-6.893-10.954,39.154,39.154,0,0,1-2.517-14.424,41.2,41.2,0,0,1,2.517-14.9,31.452,31.452,0,0,1,6.893-10.953,28.819,28.819,0,0,1,10.308-6.7,35.051,35.051,0,0,1,12.647-2.275,28.171,28.171,0,0,1,12.646,2.933A34.9,34.9,0,0,1,508.963,84.8a37.368,37.368,0,0,1,7.012,11.133A34.02,34.02,0,0,1,515.975,121.911ZM551.516,46.2h-7.911L530.9,61.4a90.921,90.921,0,0,0-9.77-8.02,74.076,74.076,0,0,0-10.968-6.464A64.1,64.1,0,0,0,498.294,42.6a49.922,49.922,0,0,0-12.346-1.556A63.607,63.607,0,0,0,460.475,46.2a65.031,65.031,0,0,0-20.857,14.245,66.936,66.936,0,0,0-14.085,21.548,69.709,69.709,0,0,0-5.154,26.935,74.169,74.169,0,0,0,5.154,28.37,60.816,60.816,0,0,0,34.942,34.6,69.238,69.238,0,0,0,25.473,4.669q4.073,0,8.81-.479a51.9,51.9,0,0,0,9.11-1.736,38.691,38.691,0,0,0,7.971-3.232,14.477,14.477,0,0,0,5.514-5.088,49.485,49.485,0,0,1-3.536,9.338,26.4,26.4,0,0,1-15.043,13.227,38.15,38.15,0,0,1-13.066,1.976l-16.182-.24v32.681l16.422,0.239A63.627,63.627,0,0,0,511.42,218.1a67.053,67.053,0,0,0,20.857-14.006,65.9,65.9,0,0,0,14.085-20.71A62.951,62.951,0,0,0,551.516,158V46.2ZM695.36,81.09a65.256,65.256,0,0,0-14.025-21.428,61.889,61.889,0,0,0-20.8-13.766,67.313,67.313,0,0,0-25.592-4.848A63.607,63.607,0,0,0,609.473,46.2a65.5,65.5,0,0,0-20.857,14.185,66.246,66.246,0,0,0-14.085,21.488,70.023,70.023,0,0,0-5.154,27.055,68.941,68.941,0,0,0,5.154,26.754,65.659,65.659,0,0,0,34.942,35.673,65.191,65.191,0,0,0,51.065,0,65.606,65.606,0,0,0,20.8-14.245,66.938,66.938,0,0,0,14.025-21.428,68.977,68.977,0,0,0,5.154-26.754A72.439,72.439,0,0,0,695.36,81.09Zm-30.387,42.078a33.18,33.18,0,0,1-7.013,11.013,31.464,31.464,0,0,1-10.368,7.063,32.083,32.083,0,0,1-12.646,2.514,30.23,30.23,0,0,1-12.647-2.694,32.218,32.218,0,0,1-10.308-7.362,34.491,34.491,0,0,1-6.893-11.013,36.988,36.988,0,0,1-2.517-13.766A38.819,38.819,0,0,1,605.1,94.617,33.675,33.675,0,0,1,611.991,83.6,29.726,29.726,0,0,1,622.3,76.541a33.813,33.813,0,0,1,25.293,0A30.349,30.349,0,0,1,657.96,83.6a34.036,34.036,0,0,1,7.013,11.013A40.827,40.827,0,0,1,664.973,123.168ZM837.525,81.09A65.256,65.256,0,0,0,823.5,59.663,61.869,61.869,0,0,0,802.7,45.9a67.313,67.313,0,0,0-25.592-4.848A63.6,63.6,0,0,0,751.639,46.2a65.5,65.5,0,0,0-20.858,14.185A66.243,66.243,0,0,0,716.7,81.868a70.023,70.023,0,0,0-5.155,27.055,68.941,68.941,0,0,0,5.155,26.754,65.65,65.65,0,0,0,34.942,35.673,65.188,65.188,0,0,0,51.064,0A65.584,65.584,0,0,0,823.5,157.1a66.938,66.938,0,0,0,14.025-21.428,68.978,68.978,0,0,0,5.155-26.754A72.439,72.439,0,0,0,837.525,81.09Zm-30.387,42.078a33.178,33.178,0,0,1-7.012,11.013,31.468,31.468,0,0,1-10.369,7.063,32.083,32.083,0,0,1-12.646,2.514,30.222,30.222,0,0,1-12.646-2.694,32.211,32.211,0,0,1-10.309-7.362,34.526,34.526,0,0,1-6.893-11.013,36.988,36.988,0,0,1-2.517-13.766,38.819,38.819,0,0,1,2.517-14.306A33.708,33.708,0,0,1,754.156,83.6a29.72,29.72,0,0,1,10.309-7.063,33.811,33.811,0,0,1,25.292,0A30.353,30.353,0,0,1,800.126,83.6a34.033,34.033,0,0,1,7.012,11.013A40.827,40.827,0,0,1,807.138,123.168Zm216.9-30.406a48.361,48.361,0,0,0-3.83-19.153,48.787,48.787,0,0,0-26.075-26.1,48,48,0,0,0-19.119-3.831,53.379,53.379,0,0,0-8.991.778,39.873,39.873,0,0,0-8.81,2.574,38.261,38.261,0,0,0-8.091,4.669,33.145,33.145,0,0,0-6.833,6.943,35.563,35.563,0,0,0-15.043-11.612,47.859,47.859,0,0,0-17.561-3.352,47.014,47.014,0,0,0-17.082,3.172,52.8,52.8,0,0,0-15.043,8.918l-8.871-9.816H860.78V174.164H893.5v-81.4a16.206,16.206,0,0,1,1.259-6.344,16.79,16.79,0,0,1,3.476-5.267,15.8,15.8,0,0,1,11.448-4.788,16.347,16.347,0,0,1,16.422,16.4v81.4h32.724v-81.4a16.206,16.206,0,0,1,1.259-6.344,16.79,16.79,0,0,1,3.476-5.267,15.8,15.8,0,0,1,11.448-4.788,16.347,16.347,0,0,1,16.422,16.4v81.4h32.6v-81.4Z"/>
</svg>
